# xmcd
#
# Track frame offsets: 
#        150
#        20971
#        37891
#        56167
#        74301
#        85602
#        102455
#        122084
#        141257
#        158418
#        178334
#
# Disc length: 3052 seconds
#
# Revision: 0
# Processed by: cddbd v1.5.2PL0 Copyright (c) Steve Scherf et al.
# Submitted via: ExactAudioCopy v0.99pb3
#
DISCID=970bea0b
DTITLE=Alias Eye - In Focus
DYEAR=2007
DGENRE=Progressive Rock
TTITLE0=I'm Your Lie
TTITLE1=In Denial
TTITLE2=The Call
TTITLE3=Enlighten Them
TTITLE4=Books
TTITLE5=History Lesson
TTITLE6=Rhodesian Rhapsody
TTITLE7=Hold On
TTITLE8=To Be Or Not To Be... Revisited
TTITLE9=Falling
TTITLE10=How We Perceive...
EXTD=
EXTT0=
EXTT1=
EXTT2=
EXTT3=
EXTT4=
EXTT5=
EXTT6=
EXTT7=
EXTT8=
EXTT9=
EXTT10=
PLAYORDER=
